# xmcd
#
# Track frame offsets: 
#        150
#        15553
#        34115
#        50612
#        70229
#        87654
#        103321
#        119450
#        131217
#        154618
#        168732
#        180197
#        196037
#        213554
#        229607
#        249272
#        261684
#        278685
#        300388
#
# Disc length: 4389 seconds
#
# Revision: 1
# Processed by: cddbd v1.5.2PL0 Copyright (c) Steve Scherf et al.
# Submitted via: ExactAudioCopy v0.99pb3
#
DISCID=0d112313
DTITLE=Die Bandbreite - Komplett Durch
DYEAR=2006
DGENRE=Hip-Hop
TTITLE0=Er scheißt drauf
TTITLE1=Erbarmen
TTITLE2=Vip-Headz
TTITLE3=Miesmuschel
TTITLE4=Ne Sekunde
TTITLE5=Dropstars
TTITLE6=Wir können auch anders
TTITLE7=An den Präsidenten
TTITLE8=Sakrileg
TTITLE9=Melez
TTITLE10=Schawarma
TTITLE11=Demokratie
TTITLE12=Zone der Entfremdung
TTITLE13=Weiter gehen
TTITLE14=Featuren
TTITLE15=Eingelocht
TTITLE16=Schublade
TTITLE17=Try to live
TTITLE18=Gedankenketten
EXTD=
EXTT0=
EXTT1=
EXTT2=
EXTT3=
EXTT4=
EXTT5=
EXTT6=
EXTT7=
EXTT8=
EXTT9=
EXTT10=
EXTT11=
EXTT12=
EXTT13=
EXTT14=
EXTT15=
EXTT16=
EXTT17=
EXTT18=
PLAYORDER=
